# MagicaVoxel @ Ephtracy

# group
o 

# material
mtllib Cactus.mtl
usemtl palette

# normals
vn -1 0 0
vn 1 0 0
vn 0 0 1
vn 0 0 -1
vn 0 -1 0
vn 0 1 0

# texcoords
vt 0.0214844 0.5
vt 0.591797 0.5
vt 0.607422 0.5

# verts
v -0.8 1.1 0.1
v -0.8 1.1 -0.1
v -0.8 1.2 0.1
v -0.8 1.2 -0.1
v -0.7 0.7 0.1
v -0.7 0.7 -0.1
v -0.7 1 0.1
v -0.7 1 -0.1
v -0.7 1.1 0.2
v -0.7 1.1 0.1
v -0.7 1.1 -0.1
v -0.7 1.1 -0.2
v -0.7 1.2 0.2
v -0.7 1.2 0.1
v -0.7 1.2 -0.1
v -0.7 1.2 -0.2
v -0.6 0.6 0.1
v -0.6 0.6 -0.1
v -0.6 0.7 0.1
v -0.6 0.7 -0.1
v -0.5 0.5 0.1
v -0.5 0.5 -0.1
v -0.5 0.6 0.1
v -0.5 0.6 -0.1
v -0.5 1.1 0.1
v -0.5 1.1 -0.1
v -0.5 1.2 0.1
v -0.5 1.2 -0.1
v -0.2 -0.5 0.1
v -0.2 -0.5 -0.1
v -0.2 0.5 0.1
v -0.2 0.5 -0.1
v -0.2 0.7 0.1
v -0.2 0.7 -0.1
v -0.2 1.2 0.1
v -0.2 1.2 -0.1
v -0.1 -0.5 0.2
v -0.1 -0.5 0.1
v -0.1 -0.5 -0.1
v -0.1 -0.5 -0.2
v -0.1 1.2 0.2
v -0.1 1.2 0.1
v -0.1 1.2 -0.1
v -0.1 1.2 -0.2
v -0.1 1.3 0.1
v -0.1 1.3 -0.1
v 0.4 0.7 0.1
v 0.4 0.7 -0.1
v 0.4 0.8 0.1
v 0.4 0.8 -0.1
v 0.4 1.1 0.1
v 0.4 1.1 -0.1
v 0.4 1.2 0.1
v 0.4 1.2 -0.1
v 0.5 0.8 0.1
v 0.5 0.8 -0.1
v 0.5 1 0.1
v 0.5 1 -0.1
v 0.5 1.1 0.2
v 0.5 1.1 0.1
v 0.5 1.1 -0.1
v 0.5 1.1 -0.2
v 0.5 1.2 0.2
v 0.5 1.2 0.1
v 0.5 1.2 -0.1
v 0.5 1.2 -0.2
v 0.7 1.1 0.1
v 0.7 1.1 -0.1
v 0.7 1.2 0.1
v 0.7 1.2 -0.1
v -0.7 1.1 0.1
v -0.7 1.1 -0.1
v -0.7 1.2 0.1
v -0.7 1.2 -0.1
v -0.5 0.8 0.1
v -0.5 0.8 -0.1
v -0.5 1 0.1
v -0.5 1 -0.1
v -0.5 1.1 0.2
v -0.5 1.1 0.1
v -0.5 1.1 -0.1
v -0.5 1.1 -0.2
v -0.5 1.2 0.2
v -0.5 1.2 0.1
v -0.5 1.2 -0.1
v -0.5 1.2 -0.2
v -0.4 0.7 0.1
v -0.4 0.7 -0.1
v -0.4 0.8 0.1
v -0.4 0.8 -0.1
v -0.4 1.1 0.1
v -0.4 1.1 -0.1
v -0.4 1.2 0.1
v -0.4 1.2 -0.1
v 0.1 -0.5 0.2
v 0.1 -0.5 0.1
v 0.1 -0.5 -0.1
v 0.1 -0.5 -0.2
v 0.1 1.2 0.2
v 0.1 1.2 0.1
v 0.1 1.2 -0.1
v 0.1 1.2 -0.2
v 0.1 1.3 0.1
v 0.1 1.3 -0.1
v 0.2 -0.5 0.1
v 0.2 -0.5 -0.1
v 0.2 0.5 0.1
v 0.2 0.5 -0.1
v 0.2 0.7 0.1
v 0.2 0.7 -0.1
v 0.2 1.2 0.1
v 0.2 1.2 -0.1
v 0.5 0.5 0.1
v 0.5 0.5 -0.1
v 0.5 0.6 0.1
v 0.5 0.6 -0.1
v 0.5 1.1 0.1
v 0.5 1.1 -0.1
v 0.5 1.2 0.1
v 0.5 1.2 -0.1
v 0.6 0.6 0.1
v 0.6 0.6 -0.1
v 0.6 0.7 0.1
v 0.6 0.7 -0.1
v 0.7 0.7 0.1
v 0.7 0.7 -0.1
v 0.7 1 0.1
v 0.7 1 -0.1
v 0.7 1.1 0.2
v 0.7 1.1 0.1
v 0.7 1.1 -0.1
v 0.7 1.1 -0.2
v 0.7 1.2 0.2
v 0.7 1.2 0.1
v 0.7 1.2 -0.1
v 0.7 1.2 -0.2
v 0.8 1.1 0.1
v 0.8 1.1 -0.1
v 0.8 1.2 0.1
v 0.8 1.2 -0.1
v -0.7 1.1 0.2
v -0.7 1.2 0.2
v -0.5 1.1 0.2
v -0.5 1.2 0.2
v -0.1 -0.5 0.2
v -0.1 1.2 0.2
v 0.1 -0.5 0.2
v 0.1 1.2 0.2
v 0.5 1.1 0.2
v 0.5 1.2 0.2
v 0.7 1.1 0.2
v 0.7 1.2 0.2
v -0.8 1.1 0.1
v -0.8 1.2 0.1
v -0.7 0.7 0.1
v -0.7 1 0.1
v -0.7 1.1 0.1
v -0.7 1.2 0.1
v -0.6 0.6 0.1
v -0.6 0.7 0.1
v -0.5 0.5 0.1
v -0.5 0.6 0.1
v -0.5 0.8 0.1
v -0.5 1 0.1
v -0.5 1.1 0.1
v -0.5 1.2 0.1
v -0.4 0.7 0.1
v -0.4 0.8 0.1
v -0.4 1.1 0.1
v -0.4 1.2 0.1
v -0.2 -0.5 0.1
v -0.2 0.5 0.1
v -0.2 0.7 0.1
v -0.2 1.2 0.1
v -0.1 -0.5 0.1
v -0.1 1.2 0.1
v -0.1 1.3 0.1
v 0.1 -0.5 0.1
v 0.1 1.2 0.1
v 0.1 1.3 0.1
v 0.2 -0.5 0.1
v 0.2 0.5 0.1
v 0.2 0.7 0.1
v 0.2 1.2 0.1
v 0.4 0.7 0.1
v 0.4 0.8 0.1
v 0.4 1.1 0.1
v 0.4 1.2 0.1
v 0.5 0.5 0.1
v 0.5 0.6 0.1
v 0.5 0.8 0.1
v 0.5 1 0.1
v 0.5 1.1 0.1
v 0.5 1.2 0.1
v 0.6 0.6 0.1
v 0.6 0.7 0.1
v 0.7 0.7 0.1
v 0.7 1 0.1
v 0.7 1.1 0.1
v 0.7 1.2 0.1
v 0.8 1.1 0.1
v 0.8 1.2 0.1
v -0.7 1.1 -0.1
v -0.7 1.2 -0.1
v -0.5 1.1 -0.1
v -0.5 1.2 -0.1
v 0.5 1.1 -0.1
v 0.5 1.2 -0.1
v 0.7 1.1 -0.1
v 0.7 1.2 -0.1
v -0.7 1.1 0.1
v -0.7 1.2 0.1
v -0.5 1.1 0.1
v -0.5 1.2 0.1
v 0.5 1.1 0.1
v 0.5 1.2 0.1
v 0.7 1.1 0.1
v 0.7 1.2 0.1
v -0.8 1.1 -0.1
v -0.8 1.2 -0.1
v -0.7 0.7 -0.1
v -0.7 1 -0.1
v -0.7 1.1 -0.1
v -0.7 1.2 -0.1
v -0.6 0.6 -0.1
v -0.6 0.7 -0.1
v -0.5 0.5 -0.1
v -0.5 0.6 -0.1
v -0.5 0.8 -0.1
v -0.5 1 -0.1
v -0.5 1.1 -0.1
v -0.5 1.2 -0.1
v -0.4 0.7 -0.1
v -0.4 0.8 -0.1
v -0.4 1.1 -0.1
v -0.4 1.2 -0.1
v -0.2 -0.5 -0.1
v -0.2 0.5 -0.1
v -0.2 0.7 -0.1
v -0.2 1.2 -0.1
v -0.1 -0.5 -0.1
v -0.1 1.2 -0.1
v -0.1 1.3 -0.1
v 0.1 -0.5 -0.1
v 0.1 1.2 -0.1
v 0.1 1.3 -0.1
v 0.2 -0.5 -0.1
v 0.2 0.5 -0.1
v 0.2 0.7 -0.1
v 0.2 1.2 -0.1
v 0.4 0.7 -0.1
v 0.4 0.8 -0.1
v 0.4 1.1 -0.1
v 0.4 1.2 -0.1
v 0.5 0.5 -0.1
v 0.5 0.6 -0.1
v 0.5 0.8 -0.1
v 0.5 1 -0.1
v 0.5 1.1 -0.1
v 0.5 1.2 -0.1
v 0.6 0.6 -0.1
v 0.6 0.7 -0.1
v 0.7 0.7 -0.1
v 0.7 1 -0.1
v 0.7 1.1 -0.1
v 0.7 1.2 -0.1
v 0.8 1.1 -0.1
v 0.8 1.2 -0.1
v -0.7 1.1 -0.2
v -0.7 1.2 -0.2
v -0.5 1.1 -0.2
v -0.5 1.2 -0.2
v -0.1 -0.5 -0.2
v -0.1 1.2 -0.2
v 0.1 -0.5 -0.2
v 0.1 1.2 -0.2
v 0.5 1.1 -0.2
v 0.5 1.2 -0.2
v 0.7 1.1 -0.2
v 0.7 1.2 -0.2
v -0.1 -0.5 0.2
v 0.1 -0.5 0.2
v -0.2 -0.5 0.1
v -0.1 -0.5 0.1
v 0.1 -0.5 0.1
v 0.2 -0.5 0.1
v -0.2 -0.5 -0.1
v -0.1 -0.5 -0.1
v 0.1 -0.5 -0.1
v 0.2 -0.5 -0.1
v -0.1 -0.5 -0.2
v 0.1 -0.5 -0.2
v -0.5 0.5 0.1
v -0.2 0.5 0.1
v 0.2 0.5 0.1
v 0.5 0.5 0.1
v -0.5 0.5 -0.1
v -0.2 0.5 -0.1
v 0.2 0.5 -0.1
v 0.5 0.5 -0.1
v -0.6 0.6 0.1
v -0.5 0.6 0.1
v 0.5 0.6 0.1
v 0.6 0.6 0.1
v -0.6 0.6 -0.1
v -0.5 0.6 -0.1
v 0.5 0.6 -0.1
v 0.6 0.6 -0.1
v -0.7 0.7 0.1
v -0.6 0.7 0.1
v 0.6 0.7 0.1
v 0.7 0.7 0.1
v -0.7 0.7 -0.1
v -0.6 0.7 -0.1
v 0.6 0.7 -0.1
v 0.7 0.7 -0.1
v -0.7 1.1 0.2
v -0.5 1.1 0.2
v 0.5 1.1 0.2
v 0.7 1.1 0.2
v -0.8 1.1 0.1
v -0.7 1.1 0.1
v -0.5 1.1 0.1
v -0.4 1.1 0.1
v 0.4 1.1 0.1
v 0.5 1.1 0.1
v 0.7 1.1 0.1
v 0.8 1.1 0.1
v -0.8 1.1 -0.1
v -0.7 1.1 -0.1
v -0.5 1.1 -0.1
v -0.4 1.1 -0.1
v 0.4 1.1 -0.1
v 0.5 1.1 -0.1
v 0.7 1.1 -0.1
v 0.8 1.1 -0.1
v -0.7 1.1 -0.2
v -0.5 1.1 -0.2
v 0.5 1.1 -0.2
v 0.7 1.1 -0.2
v -0.4 0.7 0.1
v -0.2 0.7 0.1
v 0.2 0.7 0.1
v 0.4 0.7 0.1
v -0.4 0.7 -0.1
v -0.2 0.7 -0.1
v 0.2 0.7 -0.1
v 0.4 0.7 -0.1
v -0.5 0.8 0.1
v -0.4 0.8 0.1
v 0.4 0.8 0.1
v 0.5 0.8 0.1
v -0.5 0.8 -0.1
v -0.4 0.8 -0.1
v 0.4 0.8 -0.1
v 0.5 0.8 -0.1
v -0.7 1.1 0.1
v -0.5 1.1 0.1
v 0.5 1.1 0.1
v 0.7 1.1 0.1
v -0.7 1.1 -0.1
v -0.5 1.1 -0.1
v 0.5 1.1 -0.1
v 0.7 1.1 -0.1
v -0.7 1.2 0.2
v -0.5 1.2 0.2
v -0.1 1.2 0.2
v 0.1 1.2 0.2
v 0.5 1.2 0.2
v 0.7 1.2 0.2
v -0.8 1.2 0.1
v -0.7 1.2 0.1
v -0.5 1.2 0.1
v -0.4 1.2 0.1
v -0.2 1.2 0.1
v -0.1 1.2 0.1
v 0.1 1.2 0.1
v 0.2 1.2 0.1
v 0.4 1.2 0.1
v 0.5 1.2 0.1
v 0.7 1.2 0.1
v 0.8 1.2 0.1
v -0.8 1.2 -0.1
v -0.7 1.2 -0.1
v -0.5 1.2 -0.1
v -0.4 1.2 -0.1
v -0.2 1.2 -0.1
v -0.1 1.2 -0.1
v 0.1 1.2 -0.1
v 0.2 1.2 -0.1
v 0.4 1.2 -0.1
v 0.5 1.2 -0.1
v 0.7 1.2 -0.1
v 0.8 1.2 -0.1
v -0.7 1.2 -0.2
v -0.5 1.2 -0.2
v -0.1 1.2 -0.2
v 0.1 1.2 -0.2
v 0.5 1.2 -0.2
v 0.7 1.2 -0.2
v -0.1 1.3 0.1
v 0.1 1.3 0.1
v -0.1 1.3 -0.1
v 0.1 1.3 -0.1

# faces
f 3/1/1 2/1/1 1/1/1
f 4/1/1 2/1/1 3/1/1
f 7/3/1 6/3/1 5/3/1
f 8/3/1 6/3/1 7/3/1
f 10/1/1 8/1/1 7/1/1
f 11/1/1 8/1/1 10/1/1
f 13/1/1 10/1/1 9/1/1
f 14/1/1 10/1/1 13/1/1
f 15/1/1 12/1/1 11/1/1
f 16/1/1 12/1/1 15/1/1
f 19/3/1 18/3/1 17/3/1
f 20/3/1 18/3/1 19/3/1
f 23/3/1 22/3/1 21/3/1
f 24/3/1 22/3/1 23/3/1
f 27/1/1 26/1/1 25/1/1
f 28/1/1 26/1/1 27/1/1
f 31/2/1 30/2/1 29/2/1
f 32/2/1 30/2/1 31/2/1
f 35/2/1 34/2/1 33/2/1
f 36/2/1 34/2/1 35/2/1
f 41/2/1 38/2/1 37/2/1
f 42/2/1 38/2/1 41/2/1
f 43/2/1 40/2/1 39/2/1
f 44/2/1 40/2/1 43/2/1
f 45/2/1 43/2/1 42/2/1
f 46/2/1 43/2/1 45/2/1
f 49/3/1 48/3/1 47/3/1
f 50/3/1 48/3/1 49/3/1
f 53/1/1 52/1/1 51/1/1
f 54/1/1 52/1/1 53/1/1
f 57/3/1 56/3/1 55/3/1
f 58/3/1 56/3/1 57/3/1
f 60/1/1 58/1/1 57/1/1
f 61/1/1 58/1/1 60/1/1
f 63/1/1 60/1/1 59/1/1
f 64/1/1 60/1/1 63/1/1
f 65/1/1 62/1/1 61/1/1
f 66/1/1 62/1/1 65/1/1
f 69/1/1 68/1/1 67/1/1
f 70/1/1 68/1/1 69/1/1
f 71/1/2 72/1/2 73/1/2
f 73/1/2 72/1/2 74/1/2
f 75/3/2 76/3/2 77/3/2
f 77/3/2 76/3/2 78/3/2
f 77/1/2 78/1/2 80/1/2
f 80/1/2 78/1/2 81/1/2
f 79/1/2 80/1/2 83/1/2
f 83/1/2 80/1/2 84/1/2
f 81/1/2 82/1/2 85/1/2
f 85/1/2 82/1/2 86/1/2
f 87/3/2 88/3/2 89/3/2
f 89/3/2 88/3/2 90/3/2
f 91/1/2 92/1/2 93/1/2
f 93/1/2 92/1/2 94/1/2
f 95/2/2 96/2/2 99/2/2
f 99/2/2 96/2/2 100/2/2
f 97/2/2 98/2/2 101/2/2
f 101/2/2 98/2/2 102/2/2
f 100/2/2 101/2/2 103/2/2
f 103/2/2 101/2/2 104/2/2
f 105/2/2 106/2/2 107/2/2
f 107/2/2 106/2/2 108/2/2
f 109/2/2 110/2/2 111/2/2
f 111/2/2 110/2/2 112/2/2
f 113/3/2 114/3/2 115/3/2
f 115/3/2 114/3/2 116/3/2
f 117/1/2 118/1/2 119/1/2
f 119/1/2 118/1/2 120/1/2
f 121/3/2 122/3/2 123/3/2
f 123/3/2 122/3/2 124/3/2
f 125/3/2 126/3/2 127/3/2
f 127/3/2 126/3/2 128/3/2
f 127/1/2 128/1/2 130/1/2
f 130/1/2 128/1/2 131/1/2
f 129/1/2 130/1/2 133/1/2
f 133/1/2 130/1/2 134/1/2
f 131/1/2 132/1/2 135/1/2
f 135/1/2 132/1/2 136/1/2
f 137/1/2 138/1/2 139/1/2
f 139/1/2 138/1/2 140/1/2
f 143/1/3 142/1/3 141/1/3
f 144/1/3 142/1/3 143/1/3
f 147/2/3 146/2/3 145/2/3
f 148/2/3 146/2/3 147/2/3
f 151/1/3 150/1/3 149/1/3
f 152/1/3 150/1/3 151/1/3
f 157/1/3 154/1/3 153/1/3
f 158/1/3 154/1/3 157/1/3
f 160/3/3 156/3/3 155/3/3
f 162/3/3 160/3/3 159/3/3
f 163/3/3 156/3/3 160/3/3
f 163/3/3 160/3/3 162/3/3
f 164/1/3 157/1/3 156/1/3
f 164/3/3 156/3/3 163/3/3
f 165/1/3 157/1/3 164/1/3
f 167/3/3 163/3/3 162/3/3
f 167/3/3 162/3/3 161/3/3
f 168/3/3 163/3/3 167/3/3
f 169/1/3 166/1/3 165/1/3
f 170/1/3 166/1/3 169/1/3
f 172/3/3 167/3/3 161/3/3
f 173/3/3 167/3/3 172/3/3
f 175/2/3 172/2/3 171/2/3
f 175/2/3 174/2/3 173/2/3
f 175/2/3 173/2/3 172/2/3
f 176/2/3 174/2/3 175/2/3
f 179/2/3 177/2/3 176/2/3
f 180/2/3 177/2/3 179/2/3
f 181/2/3 179/2/3 178/2/3
f 182/2/3 179/2/3 181/2/3
f 183/2/3 179/2/3 182/2/3
f 184/2/3 179/2/3 183/2/3
f 185/3/3 183/3/3 182/3/3
f 189/3/3 185/3/3 182/3/3
f 189/3/3 186/3/3 185/3/3
f 190/3/3 186/3/3 189/3/3
f 191/3/3 186/3/3 190/3/3
f 193/1/3 188/1/3 187/1/3
f 194/1/3 188/1/3 193/1/3
f 195/3/3 192/3/3 191/3/3
f 195/3/3 191/3/3 190/3/3
f 196/3/3 192/3/3 195/3/3
f 197/3/3 192/3/3 196/3/3
f 198/1/3 193/1/3 192/1/3
f 198/3/3 192/3/3 197/3/3
f 199/1/3 193/1/3 198/1/3
f 201/1/3 200/1/3 199/1/3
f 202/1/3 200/1/3 201/1/3
f 205/1/3 204/1/3 203/1/3
f 206/1/3 204/1/3 205/1/3
f 209/1/3 208/1/3 207/1/3
f 210/1/3 208/1/3 209/1/3
f 211/1/4 212/1/4 213/1/4
f 213/1/4 212/1/4 214/1/4
f 215/1/4 216/1/4 217/1/4
f 217/1/4 216/1/4 218/1/4
f 219/1/4 220/1/4 223/1/4
f 223/1/4 220/1/4 224/1/4
f 221/3/4 222/3/4 226/3/4
f 225/3/4 226/3/4 228/3/4
f 226/3/4 222/3/4 229/3/4
f 228/3/4 226/3/4 229/3/4
f 222/1/4 223/1/4 230/1/4
f 229/3/4 222/3/4 230/3/4
f 230/1/4 223/1/4 231/1/4
f 228/3/4 229/3/4 233/3/4
f 227/3/4 228/3/4 233/3/4
f 233/3/4 229/3/4 234/3/4
f 231/1/4 232/1/4 235/1/4
f 235/1/4 232/1/4 236/1/4
f 227/3/4 233/3/4 238/3/4
f 238/3/4 233/3/4 239/3/4
f 237/2/4 238/2/4 241/2/4
f 239/2/4 240/2/4 241/2/4
f 238/2/4 239/2/4 241/2/4
f 241/2/4 240/2/4 242/2/4
f 242/2/4 243/2/4 245/2/4
f 245/2/4 243/2/4 246/2/4
f 244/2/4 245/2/4 247/2/4
f 247/2/4 245/2/4 248/2/4
f 248/2/4 245/2/4 249/2/4
f 249/2/4 245/2/4 250/2/4
f 248/3/4 249/3/4 251/3/4
f 248/3/4 251/3/4 255/3/4
f 251/3/4 252/3/4 255/3/4
f 255/3/4 252/3/4 256/3/4
f 256/3/4 252/3/4 257/3/4
f 253/1/4 254/1/4 259/1/4
f 259/1/4 254/1/4 260/1/4
f 257/3/4 258/3/4 261/3/4
f 256/3/4 257/3/4 261/3/4
f 261/3/4 258/3/4 262/3/4
f 262/3/4 258/3/4 263/3/4
f 258/1/4 259/1/4 264/1/4
f 263/3/4 258/3/4 264/3/4
f 264/1/4 259/1/4 265/1/4
f 265/1/4 266/1/4 267/1/4
f 267/1/4 266/1/4 268/1/4
f 269/1/4 270/1/4 271/1/4
f 271/1/4 270/1/4 272/1/4
f 273/2/4 274/2/4 275/2/4
f 275/2/4 274/2/4 276/2/4
f 277/1/4 278/1/4 279/1/4
f 279/1/4 278/1/4 280/1/4
f 284/2/5 282/2/5 281/2/5
f 285/2/5 282/2/5 284/2/5
f 287/2/5 284/2/5 283/2/5
f 287/2/5 286/2/5 285/2/5
f 287/2/5 285/2/5 284/2/5
f 288/2/5 286/2/5 287/2/5
f 289/2/5 286/2/5 288/2/5
f 290/2/5 286/2/5 289/2/5
f 291/2/5 289/2/5 288/2/5
f 292/2/5 289/2/5 291/2/5
f 297/3/5 294/3/5 293/3/5
f 298/3/5 294/3/5 297/3/5
f 299/3/5 296/3/5 295/3/5
f 300/3/5 296/3/5 299/3/5
f 305/3/5 302/3/5 301/3/5
f 306/3/5 302/3/5 305/3/5
f 307/3/5 304/3/5 303/3/5
f 308/3/5 304/3/5 307/3/5
f 313/3/5 310/3/5 309/3/5
f 314/3/5 310/3/5 313/3/5
f 315/3/5 312/3/5 311/3/5
f 316/3/5 312/3/5 315/3/5
f 322/1/5 318/1/5 317/1/5
f 323/1/5 318/1/5 322/1/5
f 326/1/5 320/1/5 319/1/5
f 327/1/5 320/1/5 326/1/5
f 329/1/5 322/1/5 321/1/5
f 330/1/5 322/1/5 329/1/5
f 331/1/5 324/1/5 323/1/5
f 332/1/5 324/1/5 331/1/5
f 333/1/5 326/1/5 325/1/5
f 334/1/5 326/1/5 333/1/5
f 335/1/5 328/1/5 327/1/5
f 336/1/5 328/1/5 335/1/5
f 337/1/5 331/1/5 330/1/5
f 338/1/5 331/1/5 337/1/5
f 339/1/5 335/1/5 334/1/5
f 340/1/5 335/1/5 339/1/5
f 341/3/6 342/3/6 345/3/6
f 345/3/6 342/3/6 346/3/6
f 343/3/6 344/3/6 347/3/6
f 347/3/6 344/3/6 348/3/6
f 349/3/6 350/3/6 353/3/6
f 353/3/6 350/3/6 354/3/6
f 351/3/6 352/3/6 355/3/6
f 355/3/6 352/3/6 356/3/6
f 357/1/6 358/1/6 361/1/6
f 361/1/6 358/1/6 362/1/6
f 359/1/6 360/1/6 363/1/6
f 363/1/6 360/1/6 364/1/6
f 365/1/6 366/1/6 372/1/6
f 372/1/6 366/1/6 373/1/6
f 367/2/6 368/2/6 376/2/6
f 376/2/6 368/2/6 377/2/6
f 369/1/6 370/1/6 380/1/6
f 380/1/6 370/1/6 381/1/6
f 371/1/6 372/1/6 383/1/6
f 383/1/6 372/1/6 384/1/6
f 373/1/6 374/1/6 385/1/6
f 385/1/6 374/1/6 386/1/6
f 375/2/6 376/2/6 387/2/6
f 387/2/6 376/2/6 388/2/6
f 377/2/6 378/2/6 389/2/6
f 389/2/6 378/2/6 390/2/6
f 379/1/6 380/1/6 391/1/6
f 391/1/6 380/1/6 392/1/6
f 381/1/6 382/1/6 393/1/6
f 393/1/6 382/1/6 394/1/6
f 384/1/6 385/1/6 395/1/6
f 395/1/6 385/1/6 396/1/6
f 388/2/6 389/2/6 397/2/6
f 397/2/6 389/2/6 398/2/6
f 392/1/6 393/1/6 399/1/6
f 399/1/6 393/1/6 400/1/6
f 401/2/6 402/2/6 403/2/6
f 403/2/6 402/2/6 404/2/6
