# MagicaVoxel @ Ephtracy

# group
o 

# material
mtllib TreeGreen.mtl
usemtl palette

# normals
vn -1 0 0
vn 1 0 0
vn 0 0 1
vn 0 0 -1
vn 0 -1 0
vn 0 1 0

# texcoords
vt 0.568359 0.5
vt 0.591797 0.5
vt 0.955078 0.5

# verts
v -0.5 0.7 0.3
v -0.5 0.7 -0.3
v -0.5 0.8 0.4
v -0.5 0.8 0.3
v -0.5 0.8 -0.3
v -0.5 0.8 -0.4
v -0.5 1.1 0.4
v -0.5 1.1 0.3
v -0.5 1.1 -0.3
v -0.5 1.1 -0.4
v -0.5 1.2 0.3
v -0.5 1.2 -0.3
v -0.4 0.6 0.3
v -0.4 0.6 -0.3
v -0.4 0.7 0.4
v -0.4 0.7 0.3
v -0.4 0.7 -0.3
v -0.4 0.7 -0.4
v -0.4 0.8 0.5
v -0.4 0.8 0.4
v -0.4 0.8 0.3
v -0.4 0.8 -0.3
v -0.4 0.8 -0.4
v -0.4 0.8 -0.5
v -0.4 1.1 0.5
v -0.4 1.1 0.4
v -0.4 1.1 0.3
v -0.4 1.1 -0.3
v -0.4 1.1 -0.4
v -0.4 1.1 -0.5
v -0.4 1.2 0.4
v -0.4 1.2 0.3
v -0.4 1.2 -0.3
v -0.4 1.2 -0.4
v -0.4 1.3 0.3
v -0.4 1.3 -0.3
v -0.3 -0.5 0.1
v -0.3 -0.5 -0.1
v -0.3 -0.4 0.1
v -0.3 -0.4 -0.1
v -0.3 0.6 0.4
v -0.3 0.6 0.3
v -0.3 0.6 -0.3
v -0.3 0.6 -0.4
v -0.3 0.7 0.5
v -0.3 0.7 0.4
v -0.3 0.7 0.3
v -0.3 0.7 -0.3
v -0.3 0.7 -0.4
v -0.3 0.7 -0.5
v -0.3 0.8 0.5
v -0.3 0.8 0.4
v -0.3 0.8 -0.4
v -0.3 0.8 -0.5
v -0.3 1.1 0.5
v -0.3 1.1 0.4
v -0.3 1.1 -0.4
v -0.3 1.1 -0.5
v -0.3 1.2 0.5
v -0.3 1.2 0.4
v -0.3 1.2 0.3
v -0.3 1.2 -0.3
v -0.3 1.2 -0.4
v -0.3 1.2 -0.5
v -0.3 1.3 0.4
v -0.3 1.3 0.3
v -0.3 1.3 -0.3
v -0.3 1.3 -0.4
v -0.2 -0.5 0.2
v -0.2 -0.5 0.1
v -0.2 -0.5 -0.1
v -0.2 -0.5 -0.2
v -0.2 -0.4 0.1
v -0.2 -0.4 -0.1
v -0.2 -0.3 0.2
v -0.2 -0.3 0.1
v -0.2 -0.3 -0.1
v -0.2 -0.3 -0.2
v -0.2 -0.2 0.1
v -0.2 -0.2 -0.1
v -0.1 -0.5 0.3
v -0.1 -0.5 0.2
v -0.1 -0.5 -0.2
v -0.1 -0.5 -0.3
v -0.1 -0.4 0.3
v -0.1 -0.4 0.2
v -0.1 -0.4 -0.2
v -0.1 -0.4 -0.3
v -0.1 -0.3 0.2
v -0.1 -0.3 0.1
v -0.1 -0.3 -0.1
v -0.1 -0.3 -0.2
v -0.1 -0.2 0.2
v -0.1 -0.2 0.1
v -0.1 -0.2 -0.1
v -0.1 -0.2 -0.2
v -0.1 0.6 0.1
v -0.1 0.6 -0.1
v 0.1 -0.5 0.3
v 0.1 -0.5 0.2
v 0.1 -0.5 -0.2
v 0.1 -0.5 -0.3
v 0.1 -0.4 0.3
v 0.1 -0.4 0.2
v 0.1 -0.4 -0.2
v 0.1 -0.4 -0.3
v 0.1 -0.3 0.2
v 0.1 -0.3 0.1
v 0.1 -0.3 -0.1
v 0.1 -0.3 -0.2
v 0.1 -0.2 0.2
v 0.1 -0.2 0.1
v 0.1 -0.2 -0.1
v 0.1 -0.2 -0.2
v 0.1 0.6 0.1
v 0.1 0.6 -0.1
v 0.2 -0.5 0.2
v 0.2 -0.5 0.1
v 0.2 -0.5 -0.1
v 0.2 -0.5 -0.2
v 0.2 -0.4 0.1
v 0.2 -0.4 -0.1
v 0.2 -0.3 0.2
v 0.2 -0.3 0.1
v 0.2 -0.3 -0.1
v 0.2 -0.3 -0.2
v 0.2 -0.2 0.1
v 0.2 -0.2 -0.1
v 0.3 -0.5 0.1
v 0.3 -0.5 -0.1
v 0.3 -0.4 0.1
v 0.3 -0.4 -0.1
v 0.3 0.6 0.4
v 0.3 0.6 0.3
v 0.3 0.6 -0.3
v 0.3 0.6 -0.4
v 0.3 0.7 0.5
v 0.3 0.7 0.4
v 0.3 0.7 0.3
v 0.3 0.7 -0.3
v 0.3 0.7 -0.4
v 0.3 0.7 -0.5
v 0.3 0.8 0.5
v 0.3 0.8 0.4
v 0.3 0.8 -0.4
v 0.3 0.8 -0.5
v 0.3 1.1 0.5
v 0.3 1.1 0.4
v 0.3 1.1 -0.4
v 0.3 1.1 -0.5
v 0.3 1.2 0.5
v 0.3 1.2 0.4
v 0.3 1.2 0.3
v 0.3 1.2 -0.3
v 0.3 1.2 -0.4
v 0.3 1.2 -0.5
v 0.3 1.3 0.4
v 0.3 1.3 0.3
v 0.3 1.3 -0.3
v 0.3 1.3 -0.4
v 0.4 0.6 0.3
v 0.4 0.6 -0.3
v 0.4 0.7 0.4
v 0.4 0.7 0.3
v 0.4 0.7 -0.3
v 0.4 0.7 -0.4
v 0.4 0.8 0.5
v 0.4 0.8 0.4
v 0.4 0.8 0.3
v 0.4 0.8 -0.3
v 0.4 0.8 -0.4
v 0.4 0.8 -0.5
v 0.4 1.1 0.5
v 0.4 1.1 0.4
v 0.4 1.1 0.3
v 0.4 1.1 -0.3
v 0.4 1.1 -0.4
v 0.4 1.1 -0.5
v 0.4 1.2 0.4
v 0.4 1.2 0.3
v 0.4 1.2 -0.3
v 0.4 1.2 -0.4
v 0.4 1.3 0.3
v 0.4 1.3 -0.3
v 0.5 0.7 0.3
v 0.5 0.7 -0.3
v 0.5 0.8 0.4
v 0.5 0.8 0.3
v 0.5 0.8 -0.3
v 0.5 0.8 -0.4
v 0.5 1.1 0.4
v 0.5 1.1 0.3
v 0.5 1.1 -0.3
v 0.5 1.1 -0.4
v 0.5 1.2 0.3
v 0.5 1.2 -0.3
v -0.4 0.8 0.5
v -0.4 1.1 0.5
v -0.3 0.7 0.5
v -0.3 0.8 0.5
v -0.3 1.1 0.5
v -0.3 1.2 0.5
v 0.3 0.7 0.5
v 0.3 0.8 0.5
v 0.3 1.1 0.5
v 0.3 1.2 0.5
v 0.4 0.8 0.5
v 0.4 1.1 0.5
v -0.5 0.8 0.4
v -0.5 1.1 0.4
v -0.4 0.7 0.4
v -0.4 0.8 0.4
v -0.4 1.1 0.4
v -0.4 1.2 0.4
v -0.3 0.6 0.4
v -0.3 0.7 0.4
v -0.3 0.8 0.4
v -0.3 1.1 0.4
v -0.3 1.2 0.4
v -0.3 1.3 0.4
v 0.3 0.6 0.4
v 0.3 0.7 0.4
v 0.3 0.8 0.4
v 0.3 1.1 0.4
v 0.3 1.2 0.4
v 0.3 1.3 0.4
v 0.4 0.7 0.4
v 0.4 0.8 0.4
v 0.4 1.1 0.4
v 0.4 1.2 0.4
v 0.5 0.8 0.4
v 0.5 1.1 0.4
v -0.5 0.7 0.3
v -0.5 0.8 0.3
v -0.5 1.1 0.3
v -0.5 1.2 0.3
v -0.4 0.6 0.3
v -0.4 0.7 0.3
v -0.4 0.8 0.3
v -0.4 1.1 0.3
v -0.4 1.2 0.3
v -0.4 1.3 0.3
v -0.3 0.6 0.3
v -0.3 0.7 0.3
v -0.3 1.2 0.3
v -0.3 1.3 0.3
v -0.1 -0.5 0.3
v -0.1 -0.4 0.3
v 0.1 -0.5 0.3
v 0.1 -0.4 0.3
v 0.3 0.6 0.3
v 0.3 0.7 0.3
v 0.3 1.2 0.3
v 0.3 1.3 0.3
v 0.4 0.6 0.3
v 0.4 0.7 0.3
v 0.4 0.8 0.3
v 0.4 1.1 0.3
v 0.4 1.2 0.3
v 0.4 1.3 0.3
v 0.5 0.7 0.3
v 0.5 0.8 0.3
v 0.5 1.1 0.3
v 0.5 1.2 0.3
v -0.2 -0.5 0.2
v -0.2 -0.3 0.2
v -0.1 -0.5 0.2
v -0.1 -0.4 0.2
v -0.1 -0.3 0.2
v -0.1 -0.2 0.2
v 0.1 -0.5 0.2
v 0.1 -0.4 0.2
v 0.1 -0.3 0.2
v 0.1 -0.2 0.2
v 0.2 -0.5 0.2
v 0.2 -0.3 0.2
v -0.3 -0.5 0.1
v -0.3 -0.4 0.1
v -0.2 -0.5 0.1
v -0.2 -0.4 0.1
v -0.2 -0.3 0.1
v -0.2 -0.2 0.1
v -0.1 -0.3 0.1
v -0.1 -0.2 0.1
v -0.1 0.6 0.1
v 0.1 -0.3 0.1
v 0.1 -0.2 0.1
v 0.1 0.6 0.1
v 0.2 -0.5 0.1
v 0.2 -0.4 0.1
v 0.2 -0.3 0.1
v 0.2 -0.2 0.1
v 0.3 -0.5 0.1
v 0.3 -0.4 0.1
v -0.3 -0.5 -0.1
v -0.3 -0.4 -0.1
v -0.2 -0.5 -0.1
v -0.2 -0.4 -0.1
v -0.2 -0.3 -0.1
v -0.2 -0.2 -0.1
v -0.1 -0.3 -0.1
v -0.1 -0.2 -0.1
v -0.1 0.6 -0.1
v 0.1 -0.3 -0.1
v 0.1 -0.2 -0.1
v 0.1 0.6 -0.1
v 0.2 -0.5 -0.1
v 0.2 -0.4 -0.1
v 0.2 -0.3 -0.1
v 0.2 -0.2 -0.1
v 0.3 -0.5 -0.1
v 0.3 -0.4 -0.1
v -0.2 -0.5 -0.2
v -0.2 -0.3 -0.2
v -0.1 -0.5 -0.2
v -0.1 -0.4 -0.2
v -0.1 -0.3 -0.2
v -0.1 -0.2 -0.2
v 0.1 -0.5 -0.2
v 0.1 -0.4 -0.2
v 0.1 -0.3 -0.2
v 0.1 -0.2 -0.2
v 0.2 -0.5 -0.2
v 0.2 -0.3 -0.2
v -0.5 0.7 -0.3
v -0.5 0.8 -0.3
v -0.5 1.1 -0.3
v -0.5 1.2 -0.3
v -0.4 0.6 -0.3
v -0.4 0.7 -0.3
v -0.4 0.8 -0.3
v -0.4 1.1 -0.3
v -0.4 1.2 -0.3
v -0.4 1.3 -0.3
v -0.3 0.6 -0.3
v -0.3 0.7 -0.3
v -0.3 1.2 -0.3
v -0.3 1.3 -0.3
v -0.1 -0.5 -0.3
v -0.1 -0.4 -0.3
v 0.1 -0.5 -0.3
v 0.1 -0.4 -0.3
v 0.3 0.6 -0.3
v 0.3 0.7 -0.3
v 0.3 1.2 -0.3
v 0.3 1.3 -0.3
v 0.4 0.6 -0.3
v 0.4 0.7 -0.3
v 0.4 0.8 -0.3
v 0.4 1.1 -0.3
v 0.4 1.2 -0.3
v 0.4 1.3 -0.3
v 0.5 0.7 -0.3
v 0.5 0.8 -0.3
v 0.5 1.1 -0.3
v 0.5 1.2 -0.3
v -0.5 0.8 -0.4
v -0.5 1.1 -0.4
v -0.4 0.7 -0.4
v -0.4 0.8 -0.4
v -0.4 1.1 -0.4
v -0.4 1.2 -0.4
v -0.3 0.6 -0.4
v -0.3 0.7 -0.4
v -0.3 0.8 -0.4
v -0.3 1.1 -0.4
v -0.3 1.2 -0.4
v -0.3 1.3 -0.4
v 0.3 0.6 -0.4
v 0.3 0.7 -0.4
v 0.3 0.8 -0.4
v 0.3 1.1 -0.4
v 0.3 1.2 -0.4
v 0.3 1.3 -0.4
v 0.4 0.7 -0.4
v 0.4 0.8 -0.4
v 0.4 1.1 -0.4
v 0.4 1.2 -0.4
v 0.5 0.8 -0.4
v 0.5 1.1 -0.4
v -0.4 0.8 -0.5
v -0.4 1.1 -0.5
v -0.3 0.7 -0.5
v -0.3 0.8 -0.5
v -0.3 1.1 -0.5
v -0.3 1.2 -0.5
v 0.3 0.7 -0.5
v 0.3 0.8 -0.5
v 0.3 1.1 -0.5
v 0.3 1.2 -0.5
v 0.4 0.8 -0.5
v 0.4 1.1 -0.5
v -0.1 -0.5 0.3
v 0.1 -0.5 0.3
v -0.2 -0.5 0.2
v -0.1 -0.5 0.2
v 0.1 -0.5 0.2
v 0.2 -0.5 0.2
v -0.3 -0.5 0.1
v -0.2 -0.5 0.1
v 0.2 -0.5 0.1
v 0.3 -0.5 0.1
v -0.3 -0.5 -0.1
v -0.2 -0.5 -0.1
v 0.2 -0.5 -0.1
v 0.3 -0.5 -0.1
v -0.2 -0.5 -0.2
v -0.1 -0.5 -0.2
v 0.1 -0.5 -0.2
v 0.2 -0.5 -0.2
v -0.1 -0.5 -0.3
v 0.1 -0.5 -0.3
v -0.3 0.6 0.4
v 0.3 0.6 0.4
v -0.4 0.6 0.3
v -0.3 0.6 0.3
v 0.3 0.6 0.3
v 0.4 0.6 0.3
v -0.1 0.6 0.1
v 0.1 0.6 0.1
v -0.1 0.6 -0.1
v 0.1 0.6 -0.1
v -0.4 0.6 -0.3
v -0.3 0.6 -0.3
v 0.3 0.6 -0.3
v 0.4 0.6 -0.3
v -0.3 0.6 -0.4
v 0.3 0.6 -0.4
v -0.3 0.7 0.5
v 0.3 0.7 0.5
v -0.4 0.7 0.4
v -0.3 0.7 0.4
v 0.3 0.7 0.4
v 0.4 0.7 0.4
v -0.5 0.7 0.3
v -0.4 0.7 0.3
v -0.3 0.7 0.3
v 0.3 0.7 0.3
v 0.4 0.7 0.3
v 0.5 0.7 0.3
v -0.5 0.7 -0.3
v -0.4 0.7 -0.3
v -0.3 0.7 -0.3
v 0.3 0.7 -0.3
v 0.4 0.7 -0.3
v 0.5 0.7 -0.3
v -0.4 0.7 -0.4
v -0.3 0.7 -0.4
v 0.3 0.7 -0.4
v 0.4 0.7 -0.4
v -0.3 0.7 -0.5
v 0.3 0.7 -0.5
v -0.4 0.8 0.5
v -0.3 0.8 0.5
v 0.3 0.8 0.5
v 0.4 0.8 0.5
v -0.5 0.8 0.4
v -0.4 0.8 0.4
v -0.3 0.8 0.4
v 0.3 0.8 0.4
v 0.4 0.8 0.4
v 0.5 0.8 0.4
v -0.5 0.8 0.3
v -0.4 0.8 0.3
v 0.4 0.8 0.3
v 0.5 0.8 0.3
v -0.5 0.8 -0.3
v -0.4 0.8 -0.3
v 0.4 0.8 -0.3
v 0.5 0.8 -0.3
v -0.5 0.8 -0.4
v -0.4 0.8 -0.4
v -0.3 0.8 -0.4
v 0.3 0.8 -0.4
v 0.4 0.8 -0.4
v 0.5 0.8 -0.4
v -0.4 0.8 -0.5
v -0.3 0.8 -0.5
v 0.3 0.8 -0.5
v 0.4 0.8 -0.5
v -0.1 -0.4 0.3
v 0.1 -0.4 0.3
v -0.1 -0.4 0.2
v 0.1 -0.4 0.2
v -0.3 -0.4 0.1
v -0.2 -0.4 0.1
v 0.2 -0.4 0.1
v 0.3 -0.4 0.1
v -0.3 -0.4 -0.1
v -0.2 -0.4 -0.1
v 0.2 -0.4 -0.1
v 0.3 -0.4 -0.1
v -0.1 -0.4 -0.2
v 0.1 -0.4 -0.2
v -0.1 -0.4 -0.3
v 0.1 -0.4 -0.3
v -0.2 -0.3 0.2
v -0.1 -0.3 0.2
v 0.1 -0.3 0.2
v 0.2 -0.3 0.2
v -0.2 -0.3 0.1
v -0.1 -0.3 0.1
v 0.1 -0.3 0.1
v 0.2 -0.3 0.1
v -0.2 -0.3 -0.1
v -0.1 -0.3 -0.1
v 0.1 -0.3 -0.1
v 0.2 -0.3 -0.1
v -0.2 -0.3 -0.2
v -0.1 -0.3 -0.2
v 0.1 -0.3 -0.2
v 0.2 -0.3 -0.2
v -0.1 -0.2 0.2
v 0.1 -0.2 0.2
v -0.2 -0.2 0.1
v -0.1 -0.2 0.1
v 0.1 -0.2 0.1
v 0.2 -0.2 0.1
v -0.2 -0.2 -0.1
v -0.1 -0.2 -0.1
v 0.1 -0.2 -0.1
v 0.2 -0.2 -0.1
v -0.1 -0.2 -0.2
v 0.1 -0.2 -0.2
v -0.4 1.1 0.5
v -0.3 1.1 0.5
v 0.3 1.1 0.5
v 0.4 1.1 0.5
v -0.5 1.1 0.4
v -0.4 1.1 0.4
v -0.3 1.1 0.4
v 0.3 1.1 0.4
v 0.4 1.1 0.4
v 0.5 1.1 0.4
v -0.5 1.1 0.3
v -0.4 1.1 0.3
v 0.4 1.1 0.3
v 0.5 1.1 0.3
v -0.5 1.1 -0.3
v -0.4 1.1 -0.3
v 0.4 1.1 -0.3
v 0.5 1.1 -0.3
v -0.5 1.1 -0.4
v -0.4 1.1 -0.4
v -0.3 1.1 -0.4
v 0.3 1.1 -0.4
v 0.4 1.1 -0.4
v 0.5 1.1 -0.4
v -0.4 1.1 -0.5
v -0.3 1.1 -0.5
v 0.3 1.1 -0.5
v 0.4 1.1 -0.5
v -0.3 1.2 0.5
v 0.3 1.2 0.5
v -0.4 1.2 0.4
v -0.3 1.2 0.4
v 0.3 1.2 0.4
v 0.4 1.2 0.4
v -0.5 1.2 0.3
v -0.4 1.2 0.3
v -0.3 1.2 0.3
v 0.3 1.2 0.3
v 0.4 1.2 0.3
v 0.5 1.2 0.3
v -0.5 1.2 -0.3
v -0.4 1.2 -0.3
v -0.3 1.2 -0.3
v 0.3 1.2 -0.3
v 0.4 1.2 -0.3
v 0.5 1.2 -0.3
v -0.4 1.2 -0.4
v -0.3 1.2 -0.4
v 0.3 1.2 -0.4
v 0.4 1.2 -0.4
v -0.3 1.2 -0.5
v 0.3 1.2 -0.5
v -0.3 1.3 0.4
v 0.3 1.3 0.4
v -0.4 1.3 0.3
v -0.3 1.3 0.3
v 0.3 1.3 0.3
v 0.4 1.3 0.3
v -0.4 1.3 -0.3
v -0.3 1.3 -0.3
v 0.3 1.3 -0.3
v 0.4 1.3 -0.3
v -0.3 1.3 -0.4
v 0.3 1.3 -0.4

# faces
f 4/1/1 2/1/1 1/1/1
f 5/1/1 2/1/1 4/1/1
f 7/1/1 4/1/1 3/1/1
f 7/1/1 6/1/1 5/1/1
f 7/1/1 5/1/1 4/1/1
f 8/1/1 6/1/1 7/1/1
f 9/1/1 6/1/1 8/1/1
f 10/1/1 6/1/1 9/1/1
f 11/1/1 9/1/1 8/1/1
f 12/1/1 9/1/1 11/1/1
f 16/1/1 14/1/1 13/1/1
f 17/1/1 14/1/1 16/1/1
f 20/1/1 16/1/1 15/1/1
f 21/1/1 16/1/1 20/1/1
f 22/1/1 18/1/1 17/1/1
f 23/1/1 18/1/1 22/1/1
f 25/1/1 20/1/1 19/1/1
f 26/1/1 20/1/1 25/1/1
f 29/1/1 24/1/1 23/1/1
f 30/1/1 24/1/1 29/1/1
f 31/1/1 27/1/1 26/1/1
f 32/1/1 27/1/1 31/1/1
f 33/1/1 29/1/1 28/1/1
f 34/1/1 29/1/1 33/1/1
f 35/1/1 33/1/1 32/1/1
f 36/1/1 33/1/1 35/1/1
f 39/3/1 38/3/1 37/3/1
f 40/3/1 38/3/1 39/3/1
f 46/1/1 42/1/1 41/1/1
f 47/1/1 42/1/1 46/1/1
f 48/1/1 44/1/1 43/1/1
f 49/1/1 44/1/1 48/1/1
f 51/1/1 46/1/1 45/1/1
f 52/1/1 46/1/1 51/1/1
f 53/1/1 50/1/1 49/1/1
f 54/1/1 50/1/1 53/1/1
f 59/1/1 56/1/1 55/1/1
f 60/1/1 56/1/1 59/1/1
f 63/1/1 58/1/1 57/1/1
f 64/1/1 58/1/1 63/1/1
f 65/1/1 61/1/1 60/1/1
f 66/1/1 61/1/1 65/1/1
f 67/1/1 63/1/1 62/1/1
f 68/1/1 63/1/1 67/1/1
f 73/3/1 70/3/1 69/3/1
f 74/3/1 72/3/1 71/3/1
f 75/3/1 73/3/1 69/3/1
f 75/3/1 74/3/1 73/3/1
f 76/3/1 74/3/1 75/3/1
f 77/3/1 72/3/1 74/3/1
f 77/3/1 74/3/1 76/3/1
f 78/3/1 72/3/1 77/3/1
f 79/3/1 77/3/1 76/3/1
f 80/3/1 77/3/1 79/3/1
f 85/3/1 82/3/1 81/3/1
f 86/3/1 82/3/1 85/3/1
f 87/3/1 84/3/1 83/3/1
f 88/3/1 84/3/1 87/3/1
f 93/3/1 90/3/1 89/3/1
f 94/3/1 90/3/1 93/3/1
f 95/3/1 92/3/1 91/3/1
f 96/3/1 92/3/1 95/3/1
f 97/3/1 95/3/1 94/3/1
f 98/3/1 95/3/1 97/3/1
f 99/3/2 100/3/2 103/3/2
f 103/3/2 100/3/2 104/3/2
f 101/3/2 102/3/2 105/3/2
f 105/3/2 102/3/2 106/3/2
f 107/3/2 108/3/2 111/3/2
f 111/3/2 108/3/2 112/3/2
f 109/3/2 110/3/2 113/3/2
f 113/3/2 110/3/2 114/3/2
f 112/3/2 113/3/2 115/3/2
f 115/3/2 113/3/2 116/3/2
f 117/3/2 118/3/2 121/3/2
f 119/3/2 120/3/2 122/3/2
f 117/3/2 121/3/2 123/3/2
f 121/3/2 122/3/2 123/3/2
f 123/3/2 122/3/2 124/3/2
f 122/3/2 120/3/2 125/3/2
f 124/3/2 122/3/2 125/3/2
f 125/3/2 120/3/2 126/3/2
f 124/3/2 125/3/2 127/3/2
f 127/3/2 125/3/2 128/3/2
f 129/3/2 130/3/2 131/3/2
f 131/3/2 130/3/2 132/3/2
f 133/1/2 134/1/2 138/1/2
f 138/1/2 134/1/2 139/1/2
f 135/1/2 136/1/2 140/1/2
f 140/1/2 136/1/2 141/1/2
f 137/1/2 138/1/2 143/1/2
f 143/1/2 138/1/2 144/1/2
f 141/1/2 142/1/2 145/1/2
f 145/1/2 142/1/2 146/1/2
f 147/1/2 148/1/2 151/1/2
f 151/1/2 148/1/2 152/1/2
f 149/1/2 150/1/2 155/1/2
f 155/1/2 150/1/2 156/1/2
f 152/1/2 153/1/2 157/1/2
f 157/1/2 153/1/2 158/1/2
f 154/1/2 155/1/2 159/1/2
f 159/1/2 155/1/2 160/1/2
f 161/1/2 162/1/2 164/1/2
f 164/1/2 162/1/2 165/1/2
f 163/1/2 164/1/2 168/1/2
f 168/1/2 164/1/2 169/1/2
f 165/1/2 166/1/2 170/1/2
f 170/1/2 166/1/2 171/1/2
f 167/1/2 168/1/2 173/1/2
f 173/1/2 168/1/2 174/1/2
f 171/1/2 172/1/2 177/1/2
f 177/1/2 172/1/2 178/1/2
f 174/1/2 175/1/2 179/1/2
f 179/1/2 175/1/2 180/1/2
f 176/1/2 177/1/2 181/1/2
f 181/1/2 177/1/2 182/1/2
f 180/1/2 181/1/2 183/1/2
f 183/1/2 181/1/2 184/1/2
f 185/1/2 186/1/2 188/1/2
f 188/1/2 186/1/2 189/1/2
f 187/1/2 188/1/2 191/1/2
f 189/1/2 190/1/2 191/1/2
f 188/1/2 189/1/2 191/1/2
f 191/1/2 190/1/2 192/1/2
f 192/1/2 190/1/2 193/1/2
f 193/1/2 190/1/2 194/1/2
f 192/1/2 193/1/2 195/1/2
f 195/1/2 193/1/2 196/1/2
f 200/1/3 198/1/3 197/1/3
f 201/1/3 198/1/3 200/1/3
f 203/1/3 200/1/3 199/1/3
f 203/1/3 202/1/3 201/1/3
f 203/1/3 201/1/3 200/1/3
f 204/1/3 202/1/3 203/1/3
f 205/1/3 202/1/3 204/1/3
f 206/1/3 202/1/3 205/1/3
f 207/1/3 205/1/3 204/1/3
f 208/1/3 205/1/3 207/1/3
f 212/1/3 210/1/3 209/1/3
f 213/1/3 210/1/3 212/1/3
f 216/1/3 212/1/3 211/1/3
f 217/1/3 212/1/3 216/1/3
f 218/1/3 214/1/3 213/1/3
f 219/1/3 214/1/3 218/1/3
f 221/1/3 216/1/3 215/1/3
f 222/1/3 216/1/3 221/1/3
f 225/1/3 220/1/3 219/1/3
f 226/1/3 220/1/3 225/1/3
f 227/1/3 223/1/3 222/1/3
f 228/1/3 223/1/3 227/1/3
f 229/1/3 225/1/3 224/1/3
f 230/1/3 225/1/3 229/1/3
f 231/1/3 229/1/3 228/1/3
f 232/1/3 229/1/3 231/1/3
f 238/1/3 234/1/3 233/1/3
f 239/1/3 234/1/3 238/1/3
f 240/1/3 236/1/3 235/1/3
f 241/1/3 236/1/3 240/1/3
f 243/1/3 238/1/3 237/1/3
f 244/1/3 238/1/3 243/1/3
f 245/1/3 242/1/3 241/1/3
f 246/1/3 242/1/3 245/1/3
f 249/3/3 248/3/3 247/3/3
f 250/3/3 248/3/3 249/3/3
f 255/1/3 252/1/3 251/1/3
f 256/1/3 252/1/3 255/1/3
f 259/1/3 254/1/3 253/1/3
f 260/1/3 254/1/3 259/1/3
f 261/1/3 257/1/3 256/1/3
f 262/1/3 257/1/3 261/1/3
f 263/1/3 259/1/3 258/1/3
f 264/1/3 259/1/3 263/1/3
f 267/3/3 266/3/3 265/3/3
f 268/3/3 266/3/3 267/3/3
f 269/3/3 266/3/3 268/3/3
f 272/3/3 270/3/3 269/3/3
f 272/3/3 269/3/3 268/3/3
f 273/3/3 270/3/3 272/3/3
f 274/3/3 270/3/3 273/3/3
f 275/3/3 272/3/3 271/3/3
f 275/3/3 273/3/3 272/3/3
f 276/3/3 273/3/3 275/3/3
f 279/3/3 278/3/3 277/3/3
f 280/3/3 278/3/3 279/3/3
f 283/3/3 282/3/3 281/3/3
f 284/3/3 282/3/3 283/3/3
f 287/3/3 285/3/3 284/3/3
f 288/3/3 285/3/3 287/3/3
f 291/3/3 287/3/3 286/3/3
f 292/3/3 287/3/3 291/3/3
f 293/3/3 290/3/3 289/3/3
f 294/3/3 290/3/3 293/3/3
f 295/3/4 296/3/4 297/3/4
f 297/3/4 296/3/4 298/3/4
f 299/3/4 300/3/4 301/3/4
f 301/3/4 300/3/4 302/3/4
f 302/3/4 303/3/4 305/3/4
f 305/3/4 303/3/4 306/3/4
f 304/3/4 305/3/4 309/3/4
f 309/3/4 305/3/4 310/3/4
f 307/3/4 308/3/4 311/3/4
f 311/3/4 308/3/4 312/3/4
f 313/3/4 314/3/4 315/3/4
f 315/3/4 314/3/4 316/3/4
f 316/3/4 314/3/4 317/3/4
f 317/3/4 318/3/4 320/3/4
f 316/3/4 317/3/4 320/3/4
f 320/3/4 318/3/4 321/3/4
f 321/3/4 318/3/4 322/3/4
f 319/3/4 320/3/4 323/3/4
f 320/3/4 321/3/4 323/3/4
f 323/3/4 321/3/4 324/3/4
f 325/1/4 326/1/4 330/1/4
f 330/1/4 326/1/4 331/1/4
f 327/1/4 328/1/4 332/1/4
f 332/1/4 328/1/4 333/1/4
f 329/1/4 330/1/4 335/1/4
f 335/1/4 330/1/4 336/1/4
f 333/1/4 334/1/4 337/1/4
f 337/1/4 334/1/4 338/1/4
f 339/3/4 340/3/4 341/3/4
f 341/3/4 340/3/4 342/3/4
f 343/1/4 344/1/4 347/1/4
f 347/1/4 344/1/4 348/1/4
f 345/1/4 346/1/4 351/1/4
f 351/1/4 346/1/4 352/1/4
f 348/1/4 349/1/4 353/1/4
f 353/1/4 349/1/4 354/1/4
f 350/1/4 351/1/4 355/1/4
f 355/1/4 351/1/4 356/1/4
f 357/1/4 358/1/4 360/1/4
f 360/1/4 358/1/4 361/1/4
f 359/1/4 360/1/4 364/1/4
f 364/1/4 360/1/4 365/1/4
f 361/1/4 362/1/4 366/1/4
f 366/1/4 362/1/4 367/1/4
f 363/1/4 364/1/4 369/1/4
f 369/1/4 364/1/4 370/1/4
f 367/1/4 368/1/4 373/1/4
f 373/1/4 368/1/4 374/1/4
f 370/1/4 371/1/4 375/1/4
f 375/1/4 371/1/4 376/1/4
f 372/1/4 373/1/4 377/1/4
f 377/1/4 373/1/4 378/1/4
f 376/1/4 377/1/4 379/1/4
f 379/1/4 377/1/4 380/1/4
f 381/1/4 382/1/4 384/1/4
f 384/1/4 382/1/4 385/1/4
f 383/1/4 384/1/4 387/1/4
f 385/1/4 386/1/4 387/1/4
f 384/1/4 385/1/4 387/1/4
f 387/1/4 386/1/4 388/1/4
f 388/1/4 386/1/4 389/1/4
f 389/1/4 386/1/4 390/1/4
f 388/1/4 389/1/4 391/1/4
f 391/1/4 389/1/4 392/1/4
f 396/3/5 394/3/5 393/3/5
f 397/3/5 394/3/5 396/3/5
f 400/3/5 396/3/5 395/3/5
f 400/3/5 398/3/5 397/3/5
f 400/3/5 397/3/5 396/3/5
f 401/3/5 398/3/5 400/3/5
f 403/3/5 400/3/5 399/3/5
f 403/3/5 402/3/5 401/3/5
f 403/3/5 401/3/5 400/3/5
f 404/3/5 402/3/5 403/3/5
f 405/3/5 402/3/5 404/3/5
f 406/3/5 402/3/5 405/3/5
f 407/3/5 405/3/5 404/3/5
f 408/3/5 405/3/5 407/3/5
f 409/3/5 405/3/5 408/3/5
f 410/3/5 405/3/5 409/3/5
f 411/3/5 409/3/5 408/3/5
f 412/3/5 409/3/5 411/3/5
f 416/1/5 414/1/5 413/1/5
f 417/1/5 414/1/5 416/1/5
f 419/1/5 416/1/5 415/1/5
f 419/1/5 418/1/5 417/1/5
f 419/1/5 417/1/5 416/1/5
f 420/1/5 418/1/5 419/1/5
f 421/1/5 419/1/5 415/1/5
f 422/1/5 418/1/5 420/1/5
f 423/1/5 421/1/5 415/1/5
f 423/1/5 422/1/5 421/1/5
f 424/1/5 422/1/5 423/1/5
f 425/1/5 418/1/5 422/1/5
f 425/1/5 422/1/5 424/1/5
f 426/1/5 418/1/5 425/1/5
f 427/1/5 425/1/5 424/1/5
f 428/1/5 425/1/5 427/1/5
f 432/1/5 430/1/5 429/1/5
f 433/1/5 430/1/5 432/1/5
f 436/1/5 432/1/5 431/1/5
f 437/1/5 432/1/5 436/1/5
f 438/1/5 434/1/5 433/1/5
f 439/1/5 434/1/5 438/1/5
f 441/1/5 436/1/5 435/1/5
f 442/1/5 436/1/5 441/1/5
f 445/1/5 440/1/5 439/1/5
f 446/1/5 440/1/5 445/1/5
f 447/1/5 443/1/5 442/1/5
f 448/1/5 443/1/5 447/1/5
f 449/1/5 445/1/5 444/1/5
f 450/1/5 445/1/5 449/1/5
f 451/1/5 449/1/5 448/1/5
f 452/1/5 449/1/5 451/1/5
f 458/1/5 454/1/5 453/1/5
f 459/1/5 454/1/5 458/1/5
f 460/1/5 456/1/5 455/1/5
f 461/1/5 456/1/5 460/1/5
f 463/1/5 458/1/5 457/1/5
f 464/1/5 458/1/5 463/1/5
f 465/1/5 462/1/5 461/1/5
f 466/1/5 462/1/5 465/1/5
f 471/1/5 468/1/5 467/1/5
f 472/1/5 468/1/5 471/1/5
f 475/1/5 470/1/5 469/1/5
f 476/1/5 470/1/5 475/1/5
f 477/1/5 473/1/5 472/1/5
f 478/1/5 473/1/5 477/1/5
f 479/1/5 475/1/5 474/1/5
f 480/1/5 475/1/5 479/1/5
f 481/3/6 482/3/6 483/3/6
f 483/3/6 482/3/6 484/3/6
f 485/3/6 486/3/6 489/3/6
f 489/3/6 486/3/6 490/3/6
f 487/3/6 488/3/6 491/3/6
f 491/3/6 488/3/6 492/3/6
f 493/3/6 494/3/6 495/3/6
f 495/3/6 494/3/6 496/3/6
f 497/3/6 498/3/6 501/3/6
f 501/3/6 498/3/6 502/3/6
f 499/3/6 500/3/6 503/3/6
f 503/3/6 500/3/6 504/3/6
f 505/3/6 506/3/6 509/3/6
f 509/3/6 506/3/6 510/3/6
f 507/3/6 508/3/6 511/3/6
f 511/3/6 508/3/6 512/3/6
f 513/3/6 514/3/6 516/3/6
f 516/3/6 514/3/6 517/3/6
f 515/3/6 516/3/6 519/3/6
f 519/3/6 516/3/6 520/3/6
f 517/3/6 518/3/6 521/3/6
f 521/3/6 518/3/6 522/3/6
f 520/3/6 521/3/6 523/3/6
f 523/3/6 521/3/6 524/3/6
f 525/1/6 526/1/6 530/1/6
f 530/1/6 526/1/6 531/1/6
f 527/1/6 528/1/6 532/1/6
f 532/1/6 528/1/6 533/1/6
f 529/1/6 530/1/6 535/1/6
f 535/1/6 530/1/6 536/1/6
f 533/1/6 534/1/6 537/1/6
f 537/1/6 534/1/6 538/1/6
f 539/1/6 540/1/6 543/1/6
f 543/1/6 540/1/6 544/1/6
f 541/1/6 542/1/6 547/1/6
f 547/1/6 542/1/6 548/1/6
f 544/1/6 545/1/6 549/1/6
f 549/1/6 545/1/6 550/1/6
f 546/1/6 547/1/6 551/1/6
f 551/1/6 547/1/6 552/1/6
f 553/1/6 554/1/6 556/1/6
f 556/1/6 554/1/6 557/1/6
f 555/1/6 556/1/6 560/1/6
f 560/1/6 556/1/6 561/1/6
f 557/1/6 558/1/6 562/1/6
f 562/1/6 558/1/6 563/1/6
f 559/1/6 560/1/6 565/1/6
f 565/1/6 560/1/6 566/1/6
f 563/1/6 564/1/6 569/1/6
f 569/1/6 564/1/6 570/1/6
f 566/1/6 567/1/6 571/1/6
f 571/1/6 567/1/6 572/1/6
f 568/1/6 569/1/6 573/1/6
f 573/1/6 569/1/6 574/1/6
f 572/1/6 573/1/6 575/1/6
f 575/1/6 573/1/6 576/1/6
f 577/1/6 578/1/6 580/1/6
f 580/1/6 578/1/6 581/1/6
f 579/1/6 580/1/6 583/1/6
f 581/1/6 582/1/6 583/1/6
f 580/1/6 581/1/6 583/1/6
f 583/1/6 582/1/6 584/1/6
f 584/1/6 582/1/6 585/1/6
f 585/1/6 582/1/6 586/1/6
f 584/1/6 585/1/6 587/1/6
f 587/1/6 585/1/6 588/1/6
