# MagicaVoxel @ Ephtracy

# group
o 

# material
mtllib Cloud1.mtl
usemtl palette

# normals
vn -1 0 0
vn 1 0 0
vn 0 0 1
vn 0 0 -1
vn 0 -1 0
vn 0 1 0

# texcoords
vt 0.912109 0.5
vt 0.916016 0.5

# verts
v 0 2 -0.8
v 0 2 -2
v 0 2.9 -0.8
v 0 2.9 -2
v 0.8 2.5 0
v 0.8 2.5 -0.8
v 0.8 2.9 -0.8
v 0.8 2.9 -1.2
v 0.8 3.5 0
v 0.8 3.5 -1.2
v 1 3.1 -1.2
v 1 3.1 -2
v 1 3.5 -1.2
v 1 4 -1.2
v 1 4 -2
v 1.1 2 -0.8
v 1.1 2 -2
v 1.1 2.5 -0.8
v 1.1 2.5 -1.2
v 1.1 2.9 -1.2
v 1.1 2.9 -2
v 2 2.5 0
v 2 2.5 -1.2
v 2 3.1 -1.2
v 2 3.1 -2
v 2 3.5 0
v 2 3.5 -1.2
v 2 4 -1.2
v 2 4 -2
v 0.8 2.5 0
v 0.8 3.5 0
v 2 2.5 0
v 2 3.5 0
v 0 2 -0.8
v 0 2.9 -0.8
v 0.8 2.5 -0.8
v 0.8 2.9 -0.8
v 1.1 2 -0.8
v 1.1 2.5 -0.8
v 1 3.5 -1.2
v 1 4 -1.2
v 2 3.5 -1.2
v 2 4 -1.2
v 0.8 2.9 -1.2
v 0.8 3.5 -1.2
v 1 3.1 -1.2
v 1 3.5 -1.2
v 1.1 2.5 -1.2
v 1.1 2.9 -1.2
v 2 2.5 -1.2
v 2 3.1 -1.2
v 0 2 -2
v 0 2.9 -2
v 1 3.1 -2
v 1 4 -2
v 1.1 2 -2
v 1.1 2.9 -2
v 2 3.1 -2
v 2 4 -2
v 0 2 -0.8
v 1.1 2 -0.8
v 0 2 -2
v 1.1 2 -2
v 0.8 2.5 0
v 2 2.5 0
v 0.8 2.5 -0.8
v 1.1 2.5 -0.8
v 1.1 2.5 -1.2
v 2 2.5 -1.2
v 1 3.1 -1.2
v 2 3.1 -1.2
v 1 3.1 -2
v 2 3.1 -2
v 0 2.9 -0.8
v 0.8 2.9 -0.8
v 0.8 2.9 -1.2
v 1.1 2.9 -1.2
v 0 2.9 -2
v 1.1 2.9 -2
v 0.8 3.5 0
v 2 3.5 0
v 0.8 3.5 -1.2
v 1 3.5 -1.2
v 2 3.5 -1.2
v 1 4 -1.2
v 2 4 -1.2
v 1 4 -2
v 2 4 -2

# faces
f 3/2/1 2/2/1 1/2/1
f 4/2/1 2/2/1 3/2/1
f 7/1/1 6/1/1 5/1/1
f 9/1/1 7/1/1 5/1/1
f 9/1/1 8/1/1 7/1/1
f 10/1/1 8/1/1 9/1/1
f 13/2/1 12/2/1 11/2/1
f 14/2/1 12/2/1 13/2/1
f 15/2/1 12/2/1 14/2/1
f 16/2/2 17/2/2 18/2/2
f 18/2/2 17/2/2 19/2/2
f 19/2/2 17/2/2 20/2/2
f 20/2/2 17/2/2 21/2/2
f 22/1/2 23/1/2 24/1/2
f 22/1/2 24/1/2 26/1/2
f 24/2/2 25/2/2 27/2/2
f 26/1/2 24/1/2 27/1/2
f 27/2/2 25/2/2 28/2/2
f 28/2/2 25/2/2 29/2/2
f 32/1/3 31/1/3 30/1/3
f 33/1/3 31/1/3 32/1/3
f 36/2/3 35/2/3 34/2/3
f 37/2/3 35/2/3 36/2/3
f 38/2/3 36/2/3 34/2/3
f 39/2/3 36/2/3 38/2/3
f 42/2/3 41/2/3 40/2/3
f 43/2/3 41/2/3 42/2/3
f 44/1/4 45/1/4 46/1/4
f 46/1/4 45/1/4 47/1/4
f 44/1/4 46/1/4 49/1/4
f 48/1/4 49/1/4 50/1/4
f 49/1/4 46/1/4 51/1/4
f 50/1/4 49/1/4 51/1/4
f 52/2/4 53/2/4 56/2/4
f 56/2/4 53/2/4 57/2/4
f 54/2/4 55/2/4 58/2/4
f 58/2/4 55/2/4 59/2/4
f 62/2/5 61/2/5 60/2/5
f 63/2/5 61/2/5 62/2/5
f 66/1/5 65/1/5 64/1/5
f 67/1/5 65/1/5 66/1/5
f 68/1/5 65/1/5 67/1/5
f 69/1/5 65/1/5 68/1/5
f 72/2/5 71/2/5 70/2/5
f 73/2/5 71/2/5 72/2/5
f 74/2/6 75/2/6 76/2/6
f 74/2/6 76/2/6 78/2/6
f 76/2/6 77/2/6 78/2/6
f 78/2/6 77/2/6 79/2/6
f 80/1/6 81/1/6 82/1/6
f 82/1/6 81/1/6 83/1/6
f 83/1/6 81/1/6 84/1/6
f 85/2/6 86/2/6 87/2/6
f 87/2/6 86/2/6 88/2/6
